<mxfile host="app.diagrams.net" modified="2021-03-16T10:00:35.336Z" agent="5.0 (Windows NT 10.0; Win64; x64) AppleWebKit/537.36 (KHTML, like Gecko) Chrome/89.0.4389.82 Safari/537.36" etag="st9upphYrbc8GHuQ4Frm" version="14.4.8" type="github">
  <diagram id="H8HGOpEqS0bW2-LlgVmp" name="Page-1">
    <mxGraphModel dx="868" dy="450" grid="1" gridSize="10" guides="1" tooltips="1" connect="1" arrows="1" fold="1" page="1" pageScale="1" pageWidth="827" pageHeight="1169" math="0" shadow="0">
      <root>
        <mxCell id="0" />
        <mxCell id="1" parent="0" />
        <mxCell id="OdKvxqfeoW4QCdjhVHYH-1" value="Controller" style="html=1;" parent="1" vertex="1">
          <mxGeometry x="100" y="210" width="110" height="50" as="geometry" />
        </mxCell>
        <mxCell id="OdKvxqfeoW4QCdjhVHYH-2" value="r: Robot" style="html=1;" parent="1" vertex="1">
          <mxGeometry x="390" y="30" width="110" height="50" as="geometry" />
        </mxCell>
        <mxCell id="OdKvxqfeoW4QCdjhVHYH-3" value="a: Aszteroida" style="html=1;" parent="1" vertex="1">
          <mxGeometry x="670" y="210" width="110" height="50" as="geometry" />
        </mxCell>
        <mxCell id="OdKvxqfeoW4QCdjhVHYH-4" value="p:PÃ¡lya" style="html=1;" parent="1" vertex="1">
          <mxGeometry x="390" y="400" width="110" height="50" as="geometry" />
        </mxCell>
        <mxCell id="OdKvxqfeoW4QCdjhVHYH-5" value="" style="endArrow=none;html=1;exitX=1;exitY=0.25;exitDx=0;exitDy=0;entryX=0;entryY=0.75;entryDx=0;entryDy=0;" parent="1" source="OdKvxqfeoW4QCdjhVHYH-1" target="OdKvxqfeoW4QCdjhVHYH-2" edge="1">
          <mxGeometry width="50" height="50" relative="1" as="geometry">
            <mxPoint x="380" y="290" as="sourcePoint" />
            <mxPoint x="430" y="240" as="targetPoint" />
          </mxGeometry>
        </mxCell>
        <mxCell id="OdKvxqfeoW4QCdjhVHYH-6" value="" style="endArrow=none;html=1;exitX=1;exitY=0.75;exitDx=0;exitDy=0;entryX=0;entryY=0.25;entryDx=0;entryDy=0;" parent="1" source="OdKvxqfeoW4QCdjhVHYH-1" target="OdKvxqfeoW4QCdjhVHYH-4" edge="1">
          <mxGeometry width="50" height="50" relative="1" as="geometry">
            <mxPoint x="210" y="255" as="sourcePoint" />
            <mxPoint x="390" y="105" as="targetPoint" />
          </mxGeometry>
        </mxCell>
        <mxCell id="OdKvxqfeoW4QCdjhVHYH-7" value="" style="endArrow=none;html=1;exitX=0;exitY=0.75;exitDx=0;exitDy=0;entryX=1;entryY=0.25;entryDx=0;entryDy=0;" parent="1" source="OdKvxqfeoW4QCdjhVHYH-3" target="OdKvxqfeoW4QCdjhVHYH-4" edge="1">
          <mxGeometry width="50" height="50" relative="1" as="geometry">
            <mxPoint x="210" y="267.5" as="sourcePoint" />
            <mxPoint x="390" y="402.5" as="targetPoint" />
          </mxGeometry>
        </mxCell>
        <mxCell id="OdKvxqfeoW4QCdjhVHYH-8" value="" style="endArrow=none;html=1;exitX=0;exitY=0.25;exitDx=0;exitDy=0;entryX=1;entryY=0.75;entryDx=0;entryDy=0;" parent="1" source="OdKvxqfeoW4QCdjhVHYH-3" target="OdKvxqfeoW4QCdjhVHYH-2" edge="1">
          <mxGeometry width="50" height="50" relative="1" as="geometry">
            <mxPoint x="650" y="267.5" as="sourcePoint" />
            <mxPoint x="500" y="402.5" as="targetPoint" />
          </mxGeometry>
        </mxCell>
        <mxCell id="OdKvxqfeoW4QCdjhVHYH-9" value="" style="endArrow=none;html=1;exitX=1;exitY=0.5;exitDx=0;exitDy=0;entryX=0;entryY=0.5;entryDx=0;entryDy=0;" parent="1" source="OdKvxqfeoW4QCdjhVHYH-1" target="OdKvxqfeoW4QCdjhVHYH-3" edge="1">
          <mxGeometry width="50" height="50" relative="1" as="geometry">
            <mxPoint x="210" y="267.5" as="sourcePoint" />
            <mxPoint x="400" y="422.5" as="targetPoint" />
          </mxGeometry>
        </mxCell>
        <mxCell id="OdKvxqfeoW4QCdjhVHYH-10" value="3. &amp;lt;&amp;lt;create&amp;gt;&amp;gt; Robot(a)" style="html=1;verticalAlign=bottom;endArrow=block;" parent="1" edge="1">
          <mxGeometry x="-0.4615" y="11" width="80" relative="1" as="geometry">
            <mxPoint x="250" y="150" as="sourcePoint" />
            <mxPoint x="310" y="100" as="targetPoint" />
            <mxPoint as="offset" />
          </mxGeometry>
        </mxCell>
        <mxCell id="OdKvxqfeoW4QCdjhVHYH-11" value="2. &amp;lt;&amp;lt;create&amp;gt;&amp;gt;" style="html=1;verticalAlign=bottom;endArrow=block;" parent="1" edge="1">
          <mxGeometry width="80" relative="1" as="geometry">
            <mxPoint x="400" y="220" as="sourcePoint" />
            <mxPoint x="480" y="220" as="targetPoint" />
          </mxGeometry>
        </mxCell>
        <mxCell id="OdKvxqfeoW4QCdjhVHYH-12" value="1. &amp;lt;&amp;lt;create&amp;gt;&amp;gt;" style="html=1;verticalAlign=bottom;endArrow=block;" parent="1" edge="1">
          <mxGeometry width="80" relative="1" as="geometry">
            <mxPoint x="290" y="290" as="sourcePoint" />
            <mxPoint x="350" y="340" as="targetPoint" />
          </mxGeometry>
        </mxCell>
        <mxCell id="OdKvxqfeoW4QCdjhVHYH-13" value="3.Napvihar" style="html=1;verticalAlign=bottom;endArrow=block;" parent="1" edge="1">
          <mxGeometry x="-0.3115" y="-17" width="80" relative="1" as="geometry">
            <mxPoint x="260" y="330" as="sourcePoint" />
            <mxPoint x="320" y="380" as="targetPoint" />
            <mxPoint as="offset" />
          </mxGeometry>
        </mxCell>
        <mxCell id="OdKvxqfeoW4QCdjhVHYH-14" value="3.Napvihar" style="html=1;verticalAlign=bottom;endArrow=block;" parent="1" edge="1">
          <mxGeometry x="-0.3115" y="-17" width="80" relative="1" as="geometry">
            <mxPoint x="560" y="370" as="sourcePoint" />
            <mxPoint x="630" y="300" as="targetPoint" />
            <mxPoint as="offset" />
          </mxGeometry>
        </mxCell>
        <mxCell id="OdKvxqfeoW4QCdjhVHYH-15" value="3.Napvihar" style="html=1;verticalAlign=bottom;endArrow=block;" parent="1" edge="1">
          <mxGeometry x="-0.3115" y="-17" width="80" relative="1" as="geometry">
            <mxPoint x="640" y="180" as="sourcePoint" />
            <mxPoint x="560" y="110" as="targetPoint" />
            <mxPoint as="offset" />
          </mxGeometry>
        </mxCell>
        <mxCell id="cLcFfCENUjWkU6PDU5vt-1" value="Rossz" style="ellipse;whiteSpace=wrap;html=1;" vertex="1" parent="1">
          <mxGeometry x="40" y="30" width="370" height="260" as="geometry" />
        </mxCell>
      </root>
    </mxGraphModel>
  </diagram>
</mxfile>
